<svg version="1.1" id="Layer_1" xmlns="http://www.w3.org/2000/svg" xmlns:xlink="http://www.w3.org/1999/xlink" x="0px" y="0px"
     viewBox="0 0 230.3 51.9" enable-background="new 0 0 230.3 51.9" xml:space="preserve">
<g>
<rect x="-1.6" y="3.8" fill="none" width="235.7" height="49.7" />
<path fill="#fff" d="M25.6,29.6c0,1.7-0.3,3.3-1,4.6s-1.5,2.4-2.6,3.3c-1.3,1-2.7,1.8-4.2,2.2s-3.4,0.6-5.8,0.6h-10V5.4h9.3
		c2.5,0,4.3,0.1,5.6,0.2s2.4,0.6,3.6,1.2c1.3,0.7,2.2,1.6,2.7,2.6s0.9,2.4,0.9,3.8c0,1.6-0.4,3.1-1.3,4.4s-2.1,2.3-3.6,3v0.2
		c2.1,0.6,3.7,1.6,4.8,3.1S25.6,27.3,25.6,29.6z M19.1,13.9c0-0.8-0.1-1.6-0.4-2.2s-0.7-1.1-1.4-1.5c-0.8-0.4-1.6-0.7-2.5-0.8
		S12.6,9.3,11,9.3H6.6v10.2h5.3c1.5,0,2.5-0.1,3.2-0.2s1.4-0.5,2.1-0.9c0.7-0.5,1.2-1,1.5-1.8S19.1,15,19.1,13.9z M20.8,29.7
		c0-1.3-0.2-2.4-0.6-3.2s-1.1-1.6-2.3-2.2c-0.7-0.4-1.5-0.6-2.4-0.8c-0.9-0.1-2.1-0.2-3.7-0.2H6.6v12.9h3.8c2,0,3.6-0.1,4.8-0.3
		s2.2-0.6,3.1-1.2c0.9-0.6,1.5-1.3,1.9-2.1C20.6,32,20.8,31,20.8,29.7z" />
<path fill="#fff" d="M50.5,40.3h-4.4v-2.9c-1.4,1.2-2.6,2.1-3.9,2.7S39.6,41,38.1,41c-1.1,0-2.2-0.2-3.2-0.6s-1.9-1-2.6-1.8
		s-1.3-1.8-1.7-3.1s-0.6-2.7-0.6-4.5v-17h4.4V29c0,1.4,0.1,2.5,0.2,3.5c0.1,0.9,0.3,1.7,0.7,2.4c0.4,0.7,0.8,1.2,1.5,1.5
		s1.5,0.5,2.7,0.5c1.1,0,2.2-0.3,3.4-0.9s2.3-1.4,3.4-2.3V14.1h4.4V40.3z" />
<path fill="#fff" d="M77,40.3h-4.4v-2.7c-0.7,0.6-1.3,1.1-1.8,1.4s-1.1,0.7-1.8,1c-0.6,0.3-1.3,0.5-1.9,0.7S65.7,41,64.8,41
		c-1.4,0-2.7-0.3-3.9-0.9s-2.2-1.5-3.1-2.6c-0.9-1.2-1.5-2.6-2-4.3c-0.5-1.7-0.7-3.6-0.7-5.8c0-2.3,0.3-4.3,0.9-6s1.4-3.1,2.5-4.4
		c1-1.1,2.1-2,3.5-2.7s2.8-1,4.3-1c1.3,0,2.5,0.1,3.4,0.4s2,0.7,3.1,1.3V3.8H77V40.3z M72.6,33.9V18.8c-1.1-0.5-2.1-0.9-2.9-1.1
		s-1.8-0.3-2.8-0.3c-2.3,0-4,0.8-5.3,2.5s-1.9,4.1-1.9,7.3c0,3.1,0.5,5.4,1.5,7.1s2.6,2.4,4.7,2.4c1.2,0,2.3-0.3,3.5-0.8
		S71.6,34.8,72.6,33.9z" />
<path fill="#fff" d="M84.3,44.5c0.3,0.1,0.7,0.3,1.3,0.5s1.2,0.4,2,0.6c0.8,0.2,1.6,0.4,2.3,0.5s1.4,0.2,2.3,0.2
		c1.4,0,2.5-0.2,3.5-0.5s1.7-0.9,2.2-1.5c0.5-0.6,0.9-1.4,1.1-2.2s0.3-1.8,0.3-2.9v-2.3c-1.2,1-2.4,1.8-3.5,2.3s-2.6,0.7-4.3,0.7
		c-3,0-5.4-1.1-7.1-3.3s-2.6-5.4-2.6-9.6c0-2.2,0.3-4.1,0.9-5.8s1.4-3.1,2.5-4.3c1-1.1,2.1-2,3.5-2.6s2.7-0.9,4.2-0.9
		c1.4,0,2.5,0.2,3.5,0.5s2,0.8,3,1.4l0.3-1.1h4.1v23.2c0,4.4-1,7.7-2.9,9.8s-4.9,3.1-8.9,3.1c-1.3,0-2.6-0.1-3.9-0.3
		s-2.6-0.5-3.7-0.8v-4.6H84.3z M99.1,33.2V18.8c-1.1-0.5-2.1-0.9-3-1.1s-1.9-0.3-2.8-0.3c-2.2,0-4,0.8-5.3,2.5s-1.9,4-1.9,7.1
		c0,2.9,0.5,5.1,1.5,6.6c1,1.5,2.6,2.3,4.7,2.3c1.1,0,2.3-0.2,3.5-0.7S98.2,34,99.1,33.2z" />
<path fill="#fff" d="M121.3,40.9c-4.2,0-7.4-1.2-9.7-3.5s-3.5-5.7-3.5-10c0-4.3,1.1-7.7,3.4-10.2s5.2-3.8,8.8-3.8
		c1.6,0,3.1,0.2,4.3,0.7s2.3,1.2,3.3,2.2c0.9,1,1.7,2.2,2.2,3.7s0.8,3.2,0.8,5.3v2.4h-18.1c0,3,0.8,5.4,2.3,7s3.6,2.4,6.4,2.4
		c1,0,1.9-0.1,2.8-0.3s1.8-0.5,2.5-0.8c0.8-0.4,1.5-0.7,2-1s1-0.7,1.4-0.9h0.3v4.8c-0.5,0.2-1.2,0.5-1.9,0.8
		c-0.8,0.3-1.5,0.5-2.1,0.7c-0.9,0.2-1.6,0.4-2.3,0.5S122.3,40.9,121.3,40.9z M126.4,24.3c0-1.2-0.2-2.2-0.4-3.1s-0.6-1.6-1.1-2.2
		c-0.5-0.7-1.2-1.2-2-1.5s-1.8-0.5-3-0.5c-1.2,0-2.2,0.2-3,0.5s-1.6,0.9-2.2,1.5c-0.7,0.7-1.2,1.4-1.5,2.3s-0.6,1.8-0.7,2.9H126.4z" />
<path fill="#fff" d="M143.1,40.8c-2.4,0-4.3-0.7-5.6-2.1s-2-3.5-2-6.5V17.7h-3v-3.7h3V6.6h4.4v7.5h8.1v3.7h-8.1v12.4
		c0,1.3,0,2.4,0.1,3.1s0.2,1.4,0.5,2c0.3,0.5,0.7,1,1.3,1.2s1.4,0.4,2.4,0.4c0.7,0,1.4-0.1,2.1-0.3s1.2-0.4,1.5-0.5h0.3v4
		c-0.8,0.2-1.7,0.4-2.5,0.6S143.8,40.8,143.1,40.8z" />
<path fill="#fff" d="M147.8,40.3l11.8-34.9h5.7l11.8,34.9h-4.9l-3.2-9.8h-13.3l-3.2,9.8H147.8z M167.7,26.6l-5.4-16.5L157,26.6
		H167.7z" />
<path fill="#fff" d="M202,26.5c0,4.4-1,7.8-3.1,10.4s-4.7,3.9-7.9,3.9c-1.3,0-2.4-0.1-3.4-0.4s-2-0.8-3.1-1.4v11H180V14.1h4.4
		v2.7c1.1-1,2.3-1.8,3.6-2.5s2.8-1,4.4-1c3,0,5.3,1.2,7,3.6S202,22.5,202,26.5z M197.4,27c0-3-0.5-5.3-1.4-6.9s-2.5-2.5-4.6-2.5
		c-1.3,0-2.5,0.3-3.6,0.8s-2.3,1.3-3.3,2.1v14.8c1.2,0.6,2.1,0.9,3,1.1s1.8,0.3,2.8,0.3c2.3,0,4.1-0.8,5.3-2.5S197.4,30.2,197.4,27z
		" />
<path fill="#fff" d="M228.5,26.5c0,4.4-1,7.8-3.1,10.4s-4.7,3.9-7.9,3.9c-1.3,0-2.4-0.1-3.4-0.4s-2-0.8-3.1-1.4v11h-4.4V14.1
		h4.4v2.7c1.1-1,2.3-1.8,3.6-2.5s2.8-1,4.4-1c3,0,5.3,1.2,7,3.6S228.5,22.5,228.5,26.5z M224,27c0-3-0.5-5.3-1.4-6.9
		s-2.5-2.5-4.6-2.5c-1.3,0-2.5,0.3-3.6,0.8s-2.3,1.3-3.3,2.1v14.8c1.2,0.6,2.1,0.9,3,1.1s1.8,0.3,2.8,0.3c2.3,0,4.1-0.8,5.3-2.5
		S224,30.2,224,27z" />
                                </g>
                            </svg>