<svg version="1.1" id="budgetAppLogo" xmlns="http://www.w3.org/2000/svg" xmlns:xlink="http://www.w3.org/1999/xlink" x="0px" y="0px" viewBox="0 0 373 375" enable-background="new 0 0 373 375" xml:space="preserve">
<defs>
    <style type="text/css">

         @media only screen and (max-width:220px) {
             #pigDetails {
                 display: none;
             }

             #pig > path, #pig > ellipse {
                 stroke-width: 2;
                 fill: #0094ff;
             }

             #circle {
                 stroke-width: 20;
             }

             #budgetAppLogo {
                 min-width: 220px !important;
             }
         }

         @media only screen and (max-width:50px) {

             #pig > path, #pig > ellipse {
                 stroke-width: 0;
                 fill: white;
             }

             #circle {
                 stroke: white;
             }
         }
    </style>
</defs>

<ellipse id="circle" fill="none" stroke="#0094ff" stroke-width="35" stroke-miterlimit="10" cx="185.7" cy="189.6" rx="133.2" ry="128.7" />
<g id="pig">
<ellipse fill="none" stroke="#0094ff" stroke-width="2" stroke-miterlimit="10" cx="179.5" cy="126.8" rx="14.8" ry="13.8" />
<path fill="none" stroke="#0094ff" stroke-width="2" stroke-miterlimit="10" d="M120.8,170.1c0.6-0.2,1.1-0.7,1.9-1.8   c1.7-2.2,3.4-4.4,5.4-6.3c3.4-3.3,7.4-5.8,11.5-7.9c10.4-5.3,22-8.3,33.6-8.7c5.9-0.2,11.8,0.1,17.6,1.2c2.9,0.5,5.8,1.2,8.6,2   c2.1,0.6,5.7,2.7,7.4,1.6c0.9-0.6,1.5-1.8,2.5-2.4c1.1-0.7,2.3-1.2,3.5-1.7c5.3-2,10.9-3.3,16.5-3.8c2.8-0.3,5.7-0.3,8.5-0.2   c1.9,0.1,3.3,1.1,4.7,2.2c-0.4,3-3.3,5-5.6,6.9c-3.8,3.1-7,7.5-7.8,12.5c-0.7,4.9,4.7,9.2,8.1,12.1c4.5,3.8,9,5.4,14.8,5.4l4.3,0.2   l4.7,0.2l4.7,1l1.6,2.8l0.8,5.3v4.5l-1,3.3l-2.3,4.8l-3.3,4.8l-1.8,1.7l-2.3,0.8L256,211v2l-1.5,0.8l-3,0.3H247l-3.7,0.7l-3.7,1.2   l-3.8,2.2l-2.8,2.7l-2.5,4.5l-1,3.7l-0.5,3l-0.2,4.3l-0.8,3.5c-0.5,2.6-0.8,4.2-2.8,6.2c-0.6,0.6-1.1,1.1-1.8,1.5   c-1.2,0.7-3.3,0.6-4.7,0.7l-5.2,0.3l-3.3-0.5L202,241l-6,1.3l-4.7,0.7l-6.7,0.2l-8.2-0.2l-7.2-0.8l-7.2-0.8l-6.3-1.3l-7.7-1.8   c0,0-4.2,2.3-4.2,2.3c-4,2.2-6.7,6.6-11.5,7.4c-1.5,0.3-3.1,0.1-4.6-0.1c-3.9-0.5-6.3-0.9-8.2-4.6c-1.2-2.3-1.8-5.4-1.5-8   c0.2-2.1,1.7-4.3,2.4-6.3c1-2.6,1.8-5.4,2.6-8.1c0.1-0.3,0.2-0.7,0.2-1.1c0-0.3-0.2-0.6-0.3-0.9c-0.9-1.9-1.8-3.8-2.7-5.7l-3.5-7   l-1.7-6.5c0,0-1.3-5.7-1.3-5.7c0-0.2-4.1,0.2-4.4,0.1c-0.4-0.1-0.7-0.3-1-0.5c-0.6-0.4-1.3-0.8-1.9-1.1c-0.4-0.2-0.8-0.5-1.1-0.8   c-0.2-0.3-0.4-0.6-0.5-0.9c-1-2-2.4-5.9-1.7-8.1c0.3-1.1,1.8-2.4,2.5-3.3c0,0,1.2-2.5,1.2-2.5c0.3-0.6,0-1.4,0.2-2   c0.3-1.2,1.2-2.1,2.1-2.9c0.3-0.3,0.6-0.5,0.9-0.7c0.3-0.2,0.7-0.3,1.1-0.4c2.3-0.6,4.8-0.8,7.2-0.6   C119.5,170.2,120.2,170.3,120.8,170.1z" />
</g>
<g id="pigDetails">
<polyline fill="none" stroke="#0094ff" stroke-miterlimit="10" points="172.1,121.9 174.9,121.2 174.7,122.2  " />
<polyline fill="none" stroke="#0094ff" stroke-miterlimit="10" points="171.4,125.2 170.6,126.4 170.9,127.8 172.4,129.3    169.8,132.3  " />
<path fill="none" stroke="#0094ff" stroke-miterlimit="10" d="M167.1,127.1c0.1,0.2,0.6,2.6,0.6,2.6l2.4,3.6l2.8,2.9l0.5,0.3   l2.1,1.2l1.4,0.6" />
<polyline fill="none" stroke="#0094ff" stroke-miterlimit="10" points="176.2,135.7 174.4,135.8 173.5,136.4  " />
<line fill="none" stroke="#0094ff" stroke-miterlimit="10" x1="175.6" y1="119.4" x2="176.9" y2="118.1" />
<polyline fill="none" stroke="#0094ff" stroke-miterlimit="10" points="181.7,126.1 179.1,127.8 179.2,129.1  " />
<polyline fill="none" stroke="#0094ff" stroke-miterlimit="10" points="178.8,132.1 178.3,133.3 178.2,134.2  " />
<line fill="none" stroke="#0094ff" stroke-miterlimit="10" x1="181.2" y1="132.8" x2="180.5" y2="134.1" />
<polyline fill="none" stroke="#0094ff" stroke-miterlimit="10" points="184.3,131.3 185.8,130.7 185.6,128.3 187.3,126.3    187.6,124.4  " />
<polyline fill="none" stroke="#0094ff" stroke-miterlimit="10" points="181.9,118.3 183.8,118.5 185.6,119.8 186.9,121.1    187.1,121.5  " />
<line fill="none" stroke="#0094ff" stroke-miterlimit="10" x1="188.8" y1="123.7" x2="189.8" y2="123.6" />
<line fill="none" stroke="#0094ff" stroke-miterlimit="10" x1="178.2" y1="115.7" x2="179.6" y2="114.3" />
<line fill="none" stroke="#0094ff" stroke-miterlimit="10" x1="180.8" y1="115.9" x2="181.8" y2="115.9" />
<line fill="none" stroke="#0094ff" stroke-miterlimit="10" x1="181.4" y1="114.7" x2="181.3" y2="116" />
<line fill="none" stroke="#0094ff" stroke-miterlimit="10" x1="183.1" y1="116.3" x2="184.3" y2="116.5" />
<line fill="none" stroke="#0094ff" stroke-miterlimit="10" x1="184.9" y1="115.5" x2="183.6" y2="116.3" />
<line fill="none" stroke="#0094ff" stroke-miterlimit="10" x1="185.4" y1="118.3" x2="186.6" y2="117.7" />
<polyline fill="none" stroke="#0094ff" stroke-miterlimit="10" points="188.1,119.9 189.4,119.6 190.6,120.3 188.7,117.9    185.9,116.1 183.9,115 180.3,114.4 176.6,114.6 174.2,115.3 175.8,114.9 176.3,116.8  " />
<polyline fill="none" stroke="#0094ff" stroke-miterlimit="10" points="191.1,121.9 191.2,123.3 191.8,123.1  " />
<line fill="none" stroke="#0094ff" stroke-miterlimit="10" x1="167.8" y1="129.6" x2="169.1" y2="128.4" />
<line fill="none" stroke="#0094ff" stroke-miterlimit="10" x1="178.8" y1="138.9" x2="180.1" y2="139.3" />
<line fill="none" stroke="#0094ff" stroke-miterlimit="10" x1="182.3" y1="138.9" x2="183.3" y2="138.6" />
<line fill="none" stroke="#0094ff" stroke-miterlimit="10" x1="184.9" y1="137.9" x2="185.4" y2="137.5" />
<line fill="none" stroke="#0094ff" stroke-miterlimit="10" x1="166.8" y1="124.8" x2="167.1" y2="123.8" />
<line fill="none" stroke="#0094ff" stroke-miterlimit="10" x1="189.6" y1="126.1" x2="190.3" y2="125.7" />
<path fill="none" stroke="#0094ff" stroke-miterlimit="10" d="M175.5,115.1" />
<path fill="none" stroke="#0094ff" stroke-width="2.1248" stroke-miterlimit="10" d="M108.6,182.8c-0.4,1.2-0.9,2.4-0.7,3.7   c0.2,1,0.5,2.2,1.3,2.8c0.9,0.8,2,0.8,3.1,1.3c0.7,0.3,0.8,0.9,1.3,1.4" />
<path fill="#0094ff" stroke="#0094ff" stroke-miterlimit="10" d="M161.3,153.2c6.2,0.1,12.5-0.9,18.7-0.6   c6.3,0.3,12.4,1.9,18.6,2.3c0-1.1-0.8-2.4-1.2-3.5l-8.1-2.3l-15.2-1.1l-8.3,0.4l-2.9,0C162.4,149.9,161.3,151.7,161.3,153.2z" />
<g>
<path fill="#0094ff" d="M208.1,149.4c-0.3,0.8-0.7,1.4-1.1,2.1c-0.2,0.3-0.4,0.6-0.7,0.9c-0.2,0.3-0.5,0.6-0.7,0.9l0.1-0.3    c-0.1,0.5-0.3,1.1-0.4,1.6c-0.2,0.5-0.4,1.1-0.7,1.6c-0.1-0.6-0.1-1.2-0.1-1.7c0-0.6,0.1-1.1,0.1-1.7l0-0.1l0.1-0.1    c0.2-0.3,0.5-0.6,0.7-0.9c0.2-0.3,0.5-0.6,0.8-0.8C206.8,150.3,207.4,149.8,208.1,149.4z" />
	</g>
<g>
<path fill="#0094ff" d="M229.4,162c0,0,0,0.6-0.2,1.4c-0.1,0.8-0.4,1.9-0.8,3c-0.4,1.1-0.8,2.1-1.3,2.8c-0.4,0.7-0.8,1.2-0.8,1.2    s0-0.6,0.2-1.4c0.1-0.8,0.4-1.9,0.8-3c0.4-1.1,0.9-2.1,1.3-2.8C229,162.4,229.4,162,229.4,162z" />
	</g>
<polyline fill="none" stroke="#0094ff" stroke-miterlimit="10" points="229.4,164.5 235.7,156 241.8,150 240.3,149.1  " />
<path fill="#0094ff" stroke="#0094ff" stroke-width="0.5" stroke-miterlimit="10" d="M229.8,175.1l0.4-1.3l1.5-0.2l0.9,0.4   c0,0,2.2,2.1,2.3,2.1c0.8,0.8,1.7,1.9,2.3,2.9c0.5,0.9,1.1,1.9,1.1,2.9c0.1,1.1-0.6,2.4-1.9,2.1c-2.6-0.6-4.6-3.3-5.7-5.6   c-0.4-0.9-0.9-1.9-1.2-2.9L229.8,175.1z" />
<polyline stroke="#0094ff" stroke-miterlimit="10" points="255.4,210.7 249.4,210.4 248.9,210.4 241.1,208.3  " />
<g>
<path fill="#0094ff" d="M223.7,218.6c0.9-0.3,1.8-0.5,2.6-0.8c0.9-0.3,1.7-0.5,2.6-0.8c1.7-0.6,3.3-1.4,4.8-2.4    c1.5-1,2.9-2.1,4.1-3.5c1.2-1.3,2.2-2.9,3.2-4.4l0,0c1.1-1.8,2.1-3.7,2.8-5.7c0.2-0.5,0.3-1,0.4-1.5c0.1-0.5,0.2-1,0.3-1.6    c0.1-1.1-0.1-2.1-0.3-3.2c0.4,1,0.7,2.1,0.7,3.2c0,1.1-0.2,2.2-0.4,3.3c-0.5,2.1-1.5,4.2-2.5,6l0,0l0,0c-1,1.5-2,3.1-3.3,4.5    c-1.3,1.4-2.7,2.6-4.4,3.5c-1.6,1-3.4,1.7-5.1,2.2c-0.9,0.3-1.8,0.4-2.7,0.6C225.5,218.3,224.6,218.5,223.7,218.6z" />
	</g>
<g>
<path fill="#0094ff" d="M204,242.4c-0.9-0.5-1.7-1.1-2.4-1.7c-0.4-0.3-0.7-0.6-1.1-1c-0.3-0.3-0.7-0.7-1-1l0.2,0.1    c-0.7-0.4-1.4-0.7-2.1-1.2c-0.7-0.4-1.4-0.9-2-1.5c0.8,0.1,1.6,0.3,2.4,0.6c0.8,0.2,1.5,0.5,2.3,0.9l0.1,0l0.1,0.1    c0.4,0.3,0.7,0.7,1,1.1c0.3,0.4,0.6,0.7,1,1.1C203,240.7,203.5,241.5,204,242.4z" />
	</g>
<g>
<path fill="#0094ff" d="M145.8,239.1c0.7-0.7,1.4-1.3,2.2-1.9c0.8-0.6,1.5-1.1,2.3-1.6l0,0l0.1,0c0.6-0.3,1.2-0.5,1.7-0.7    c0.6-0.2,1.2-0.5,1.8-0.7l0.1,0l0,0c1.1,0,2.2,0.1,3.3,0.3c-1.1,0.3-2.2,0.5-3.3,0.7l0.2,0c-0.6,0.3-1.1,0.6-1.7,0.9    c-0.6,0.3-1.1,0.5-1.7,0.8l0.1,0c-0.8,0.5-1.6,0.9-2.5,1.4C147.6,238.4,146.7,238.8,145.8,239.1z" />
	</g>
<path fill="none" stroke="#0094ff" stroke-miterlimit="10" d="M118.6,174.3" />
<path fill="#0094ff" stroke="#0094ff" stroke-width="0.25" stroke-miterlimit="10" d="M114.9,175.4l2.6,2.3l0.8-1.8   c0.2-0.9,0.7-2-0.6-2c-0.1,0-0.3,0-0.4,0c-1.2,0.2-2.2,0.4-3.2,1.2c-1.3,1.1-3,2.1-2.7,4.1c0.1,0.7,0.8,1.3,1.5,1.3   c1.2,0.1,1.3-0.9,0.9-1.8c-0.1-0.3-0.5-0.6-0.5-0.6l-0.4-0.5l-0.4-0.6l2.3-2.1L114.9,175.4z" />
<path fill="none" stroke="#0094ff" stroke-width="1.9354" stroke-miterlimit="10" d="M106.8,176.8c0.6,2.1,0.9,4.8,2.6,6.3   c1.6,1.4,3.7,1.9,5.7,2.4l-0.9,4.3l-0.4,3.7" />
</g>
</svg>