<svg version="1.1" id="budgetAppLogo" xmlns="http://www.w3.org/2000/svg" xmlns:xlink="http://www.w3.org/1999/xlink" x="0px" y="0px"
     viewBox="95 100 180 180" enable-background="new 85 100 200 200" xml:space="preserve">
<defs>
<style type="text/css">
    #circle, #arrows, #cross, #text {
        display: none;
    }


    #pig > path, #pigDetails > path, polyline, line, ellipse {
        stroke: #296ad4;
    }

    #tail, #coinslot, .fillers {
        fill: #296ad4;
    }


    #pigDetails {
        display: block;
    }
</style>
    </defs>
<ellipse id="circle" fill="none" stroke="#000000" stroke-width="70" stroke-miterlimit="10" cx="185.7" cy="189.6" rx="133.2" ry="128.7" />
<g id="cross">
<line fill="none" stroke="#000000" stroke-width="70" stroke-miterlimit="10" x1="345.3" y1="28" x2="258" y2="116.7" />
<line fill="none" stroke="#000000" stroke-width="70" stroke-miterlimit="10" x1="115.3" y1="259" x2="28" y2="347.7" />
<line fill="none" stroke="#000000" stroke-width="70" stroke-miterlimit="10" x1="257.7" y1="261.3" x2="345.7" y2="349.3" />
<line fill="none" stroke="#000000" stroke-width="70" stroke-miterlimit="10" x1="29.7" y1="28.3" x2="117.7" y2="116.3" />
</g>
<g id="text">
<g id="text_1">
<path fill="#FFFFFF" stroke="#FFFFFF" stroke-width="0.8453" stroke-miterlimit="10" d="M71.6,106c0.9-1.7,2.4-4.1,4.3-6.4
			c2.6-3.3,4.9-4.9,7.4-5.4c2-0.5,4.2-0.1,6.1,1.5c2.4,2,3.3,5.3,2.1,8.7l0.1,0.1c2.5-1.9,6.8-3.1,10.5-0.1c2.2,1.8,3.1,4,3.3,6.2
			c0.2,3.1-1.4,6.5-4.7,10.6c-1.8,2.2-3.4,3.8-4.4,4.8L71.6,106z M84.6,111.2l2.4-3c2.8-3.4,2.6-6.9,0.2-8.9c-3-2.4-5.9-1.1-8.6,2.2
			c-1.2,1.5-1.8,2.4-2.1,3.1L84.6,111.2z M96.6,121c0.6-0.5,1.4-1.4,2.4-2.6c2.7-3.4,4-7.5,0.4-10.4c-3.4-2.8-7.3-1-10.1,2.6
			l-2.2,2.7L96.6,121z" />
<path fill="#FFFFFF" stroke="#FFFFFF" stroke-width="0.8453" stroke-miterlimit="10" d="M95.6,79.3l11.7,15.2
			c4.4,5.8,8.9,6.2,12.3,3.6c3.8-2.9,4.3-7.3,0-13l-11.7-15.2l3.4-2.6l11.5,15c6.1,7.9,4.4,14.3-1.2,18.6c-5.3,4-11.6,4.1-17.7-3.9
			L92.2,81.9L95.6,79.3z" />
<path fill="#FFFFFF" stroke="#FFFFFF" stroke-width="0.8453" stroke-miterlimit="10" d="M123.3,60.8c2.2-1.3,4.9-2.8,8-4
			c5.6-2.3,10.1-2.6,13.7-1.3c3.7,1.3,6.7,4.2,8.7,9c2,4.9,2.2,9.5,0.5,13.4c-1.6,4-5.7,7.4-11.5,9.8c-2.8,1.1-5.1,2-7.2,2.5
			L123.3,60.8z M138.1,85.7c1.1-0.2,2.5-0.8,4-1.4c8.3-3.4,10.9-9.9,7.5-18c-2.9-7.1-8.7-9.9-16.9-6.6c-2,0.8-3.4,1.6-4.4,2.3
			L138.1,85.7z" />
<path fill="#FFFFFF" stroke="#FFFFFF" stroke-width="0.8453" stroke-miterlimit="10" d="M187.8,75.2c-1.8,0.9-5.3,2.4-9.7,3
			c-4.9,0.6-9-0.2-12.6-2.8c-3.1-2.3-5.3-6.4-6-11.4c-1.1-9.6,4.6-17.4,15.4-18.7c3.7-0.5,6.7,0,8.2,0.5l-0.6,3.5
			c-1.8-0.6-4-0.9-7.3-0.5c-7.8,1-12.4,6.4-11.4,14.5c1,8.2,6.5,12.4,14,11.5c2.7-0.3,4.5-0.9,5.4-1.5l-1.2-9.6l-6.5,0.8l-0.4-3.3
			l10.6-1.3L187.8,75.2z" />
<path fill="#FFFFFF" stroke="#FFFFFF" stroke-width="0.8453" stroke-miterlimit="10" d="M211.1,64.1l-12.5-1.5l-1.4,11.6l14,1.7
			l-0.4,3.5l-18.1-2.2l3.9-32.2l17.4,2.1l-0.4,3.5L200.2,49L199,59.1l12.5,1.5L211.1,64.1z" />
<path fill="#FFFFFF" stroke="#FFFFFF" stroke-width="0.8453" stroke-miterlimit="10" d="M230.3,55.3l-9.3-3.2l1.2-3.4l22.7,7.9
			l-1.2,3.4l-9.4-3.3L224.8,84l-4-1.4L230.3,55.3z" />
<path fill="#FFFFFF" stroke="#FFFFFF" stroke-width="0.8453" stroke-miterlimit="10" d="M242.5,80.6l-8.1,7l-3.7-2.2l26.1-22.2
			l4.3,2.6L254,99.4l-3.8-2.3l2.3-10.5L242.5,80.6z M253.4,83.3l2.1-9.6c0.5-2.2,1-4.1,1.6-5.9l-0.1,0c-1.4,1.4-2.9,2.8-4.4,4.2
			l-7.5,6.4L253.4,83.3z" />
<path fill="#FFFFFF" stroke="#FFFFFF" stroke-width="0.8453" stroke-miterlimit="10" d="M278.5,78.8c1.7,1.2,3.8,2.8,6.1,5.2
			c2.9,2.9,4.4,5.7,4.6,8.3c0.2,2.3-0.7,4.8-2.8,6.8c-2.1,2.1-4.3,3.1-6.7,3.2c-3.2,0.1-6.6-1.6-9.5-4.5c-0.9-0.9-1.7-1.7-2.2-2.6
			l-9.1,9.2l-3-2.9L278.5,78.8z M270.5,92.9c0.5,0.8,1.2,1.7,2.2,2.7c3.6,3.6,7.5,4,10.7,0.8c3-3,2.3-6.6-1-9.9
			c-1.3-1.3-2.4-2.2-3-2.5L270.5,92.9z" />
<path fill="#FFFFFF" stroke="#FFFFFF" stroke-width="0.8453" stroke-miterlimit="10" d="M299.5,101.6c1.4,1.5,3,3.6,4.9,6.4
			c2.2,3.5,3,6.6,2.6,9.1c-0.3,2.3-1.8,4.5-4.2,6c-2.5,1.6-4.9,2.1-7.2,1.6c-3.2-0.6-6.1-3-8.3-6.4c-0.7-1.1-1.3-2.1-1.6-3l-10.9,7
			l-2.3-3.5L299.5,101.6z M288.6,113.5c0.3,0.9,0.8,1.9,1.6,3.1c2.7,4.3,6.4,5.5,10.2,3.1c3.6-2.3,3.7-6,1.2-9.9
			c-1-1.5-1.9-2.6-2.4-3.1L288.6,113.5z" />
	</g>
<g id="text_2">
<path fill="#FFFFFF" stroke="#FFFFFF" stroke-width="1.0041" stroke-miterlimit="10" d="M55.6,204.7c-0.3-0.8-0.9-2.4-1-4.3
			c-0.1-2.1,0.4-3.9,1.7-5.4c1.1-1.3,3-2.1,5.2-2.2c4.2-0.1,7.4,2.6,7.6,7.4c0.1,1.6-0.2,2.9-0.5,3.6l-1.5-0.4
			c0.3-0.8,0.5-1.7,0.5-3.2c-0.1-3.4-2.4-5.6-5.9-5.5c-3.6,0.1-5.6,2.4-5.5,5.7c0,1.2,0.2,2,0.5,2.4l4.2-0.2l-0.1-2.9l1.5-0.1
			l0.2,4.7L55.6,204.7z" />
<path fill="#FFFFFF" stroke="#FFFFFF" stroke-width="1.0041" stroke-miterlimit="10" d="M60.2,208.8c-2.5,0.4-3.3,2.1-3,3.9
			c0.2,1.3,0.5,2.1,0.9,2.7l-1.3,0.5c-0.4-0.6-0.9-1.7-1.1-3.3c-0.4-3.1,1.4-5.2,4.4-5.7c3-0.4,5.7,1,6.1,4c0.5,3.3-2.3,4.6-4.2,4.8
			c-0.4,0.1-0.7,0.1-0.9,0.1L60.2,208.8z M62.3,214c1.2-0.1,2.9-0.9,2.6-3c-0.3-1.9-2.1-2.4-3.4-2.4L62.3,214z" />
<path fill="#FFFFFF" stroke="#FFFFFF" stroke-width="1.0041" stroke-miterlimit="10" d="M70.4,219l-2.9,0.6l0.5,2.6l-1.4,0.3
			l-0.5-2.6l-5.4,1.1c-1.2,0.3-1.9,0.8-1.6,1.8c0.1,0.5,0.2,0.8,0.3,1l-1.3,0.4c-0.2-0.3-0.4-0.9-0.6-1.6c-0.2-0.8-0.1-1.6,0.3-2.1
			c0.4-0.6,1.3-1,2.4-1.2l5.4-1.1l-0.3-1.5l1.4-0.3l0.3,1.5l2.4-0.5L70.4,219z" />
<path fill="#FFFFFF" stroke="#FFFFFF" stroke-width="1.0041" stroke-miterlimit="10" d="M62.6,238.3c-0.4-0.4-1-1.3-1.5-2.6
			c-0.9-2.9,0.4-5.5,3.4-6.4c3-1,5.8,0.4,6.8,3.5c0.3,1,0.4,2,0.3,2.6l-1.5,0c0.1-0.5,0.1-1.2-0.2-2.2c-0.7-2.2-2.7-2.9-4.8-2.2
			c-2.2,0.7-3.2,2.6-2.5,4.5c0.3,1,0.8,1.6,1.2,2L62.6,238.3z" />
<path fill="#FFFFFF" stroke="#FFFFFF" stroke-width="1.0041" stroke-miterlimit="10" d="M71.6,247.6c-3.5,1.5-6-0.3-7-2.6
			c-1.1-2.5,0-5.3,2.9-6.5c3.1-1.3,5.8,0,6.9,2.6C75.6,243.7,74.4,246.4,71.6,247.6z M68.3,240.2c-2.1,0.9-3.1,2.7-2.4,4.4
			c0.7,1.6,2.7,2.2,4.8,1.3c1.6-0.7,3.3-2.3,2.4-4.3C72.3,239.5,70.1,239.4,68.3,240.2z" />
<path fill="#FFFFFF" stroke="#FFFFFF" stroke-width="1.0041" stroke-miterlimit="10" d="M74.8,249c0.9-0.5,1.7-0.9,2.4-1.4
			l0.8,1.4l-1.4,0.9l0,0c1.1,0,2.5,0.6,3.3,2.1c0.7,1.2,1,3.6-2.1,5.2l-5.4,2.9l-0.9-1.6l5.2-2.8c1.4-0.8,2.4-2,1.5-3.5
			c-0.6-1.1-1.8-1.5-2.8-1.3c-0.2,0-0.5,0.1-0.8,0.3l-5.4,2.9l-0.9-1.6L74.8,249z" />
<path fill="#FFFFFF" stroke="#FFFFFF" stroke-width="1.0041" stroke-miterlimit="10" d="M86.5,258l-2.5,1.6l1.4,2.2l-1.2,0.8
			l-1.4-2.2l-4.6,3c-1.1,0.7-1.5,1.4-0.9,2.2c0.3,0.4,0.5,0.7,0.7,0.8l-1.1,0.8c-0.3-0.2-0.7-0.6-1.1-1.2c-0.5-0.7-0.6-1.5-0.4-2.1
			c0.2-0.7,0.8-1.4,1.8-2l4.7-3l-0.9-1.3l1.2-0.8l0.9,1.3l2-1.3L86.5,258z" />
<path fill="#FFFFFF" stroke="#FFFFFF" stroke-width="1.0041" stroke-miterlimit="10" d="M84.1,265.3c1-0.7,1.8-1.3,2.5-2l1,1.3
			l-1.6,1.2l0.1,0.1c1.4-0.4,2.7-0.1,3.5,0.9c0.1,0.2,0.2,0.3,0.3,0.5l-1.4,1c-0.1-0.2-0.2-0.3-0.3-0.5c-0.8-1.1-2.1-1.2-3.4-0.6
			c-0.2,0.1-0.5,0.3-0.7,0.4l-4.4,3.2l-1.1-1.5L84.1,265.3z" />
<path fill="#FFFFFF" stroke="#FFFFFF" stroke-width="1.0041" stroke-miterlimit="10" d="M92.8,279c-2.9,2.5-5.8,1.6-7.4-0.3
			c-1.8-2.1-1.7-5,0.8-7.1c2.6-2.2,5.6-1.8,7.4,0.3C95.5,274.1,95.2,277,92.8,279z M87.5,272.9c-1.7,1.5-2.1,3.5-0.9,4.9
			c1.2,1.3,3.3,1.3,5-0.2c1.3-1.1,2.4-3.2,1-4.9C91.1,271.1,88.9,271.7,87.5,272.9z" />
<path fill="#FFFFFF" stroke="#FFFFFF" stroke-width="1.0041" stroke-miterlimit="10" d="M101.6,273.9l1.3,1.3l-10.6,10.5l-1.3-1.3
			L101.6,273.9z" />
<path fill="#FFFFFF" stroke="#FFFFFF" stroke-width="1.0041" stroke-miterlimit="10" d="M109,293.4c-2.4,2.9-5.4,2.6-7.3,1
			c-2.1-1.7-2.5-4.6-0.5-7.1c2.1-2.7,5.1-2.8,7.3-1C110.8,288.1,111,291,109,293.4z M102.7,288.4c-1.4,1.7-1.5,3.9,0,5
			c1.4,1.1,3.5,0.6,4.9-1.1c1.1-1.3,1.8-3.6,0.1-5C105.9,285.9,103.9,286.9,102.7,288.4z" />
<path fill="#FFFFFF" stroke="#FFFFFF" stroke-width="1.0041" stroke-miterlimit="10" d="M114.5,291.1L113,297
			c-0.2,1-0.5,1.8-0.8,2.6l0.1,0c0.7-0.6,1.4-1.1,2.2-1.7l4.8-3.7l1.6,1.1l-9,6.3l-1.5-1l2.4-10.6L114.5,291.1z" />
<path fill="#FFFFFF" stroke="#FFFFFF" stroke-width="1.0041" stroke-miterlimit="10" d="M120.4,301.3c-1.2,2.2-0.3,3.9,1.4,4.8
			c1.2,0.6,2,0.8,2.7,0.9l-0.4,1.3c-0.7-0.1-1.9-0.3-3.3-1.1c-2.8-1.5-3.4-4.2-1.9-6.9c1.5-2.7,4.2-3.9,6.8-2.5
			c2.9,1.6,2.3,4.6,1.4,6.2c-0.2,0.3-0.4,0.6-0.5,0.7L120.4,301.3z M125.8,302.8c0.6-1,1-2.9-0.8-3.9c-1.6-0.9-3.2,0.2-3.9,1.3
			L125.8,302.8z" />
<path fill="#FFFFFF" stroke="#FFFFFF" stroke-width="1.0041" stroke-miterlimit="10" d="M130.1,303.8c0.5-1.1,0.9-2,1.2-2.9
			l1.5,0.7l-0.8,1.8l0.1,0c1-1.1,2.4-1.4,3.5-0.9c0.2,0.1,0.3,0.2,0.5,0.3l-0.7,1.6c-0.2-0.1-0.3-0.2-0.5-0.3
			c-1.2-0.5-2.4,0-3.2,1.1c-0.1,0.2-0.3,0.5-0.4,0.8l-2.2,4.9l-1.7-0.8L130.1,303.8z" />
<path fill="#FFFFFF" stroke="#FFFFFF" stroke-width="1.0041" stroke-miterlimit="10" d="M142.4,305.5l0.3,6.4c0,0.7,0,1.6,0,2.2
			l0,0c0.4-0.5,0.8-1.2,1.3-1.8l3.8-5.1l1.9,0.6l-4.9,6c-2.3,2.9-3.8,4.3-5.3,5c-1.1,0.5-2.1,0.5-2.5,0.4l0-1.6
			c0.5,0,1.2-0.1,1.8-0.4c0.6-0.2,1.4-0.7,2.1-1.5c0.1-0.2,0.2-0.3,0.3-0.4c0-0.1,0-0.3,0-0.5l-0.7-10.1L142.4,305.5z" />
<path fill="#FFFFFF" stroke="#FFFFFF" stroke-width="1.0041" stroke-miterlimit="10" d="M158.8,315.1c-0.8,3.7-3.8,4.7-6.2,4.1
			c-2.7-0.6-4.3-3.1-3.6-6.2c0.8-3.3,3.4-4.8,6.1-4.1C158,309.6,159.5,312.1,158.8,315.1z M150.9,313.4c-0.5,2.2,0.4,4.1,2.1,4.5
			c1.7,0.4,3.4-0.9,3.9-3.2c0.4-1.7,0-4-2.1-4.5C152.7,309.8,151.3,311.5,150.9,313.4z" />
<path fill="#FFFFFF" stroke="#FFFFFF" stroke-width="1.0041" stroke-miterlimit="10" d="M169.6,319c-0.1,1-0.2,2-0.3,2.8l-1.6-0.2
			l0.1-1.7l0,0c-0.6,0.8-1.8,1.7-3.6,1.5c-1.6-0.2-3.4-1.3-2.9-4.9l0.8-5.9l1.8,0.2l-0.7,5.6c-0.2,1.9,0.2,3.3,1.8,3.5
			c1.2,0.2,2.2-0.6,2.6-1.4c0.1-0.3,0.2-0.6,0.3-0.9l0.8-6.2l1.8,0.2L169.6,319z" />
<path fill="#FFFFFF" stroke="#FFFFFF" stroke-width="1.0041" stroke-miterlimit="10" d="M173.4,315c0.1-1.2,0.1-2.2,0.1-3.2
			l1.6,0.1l0,2l0.1,0c0.5-1.3,1.7-2.2,2.9-2.1c0.2,0,0.4,0,0.5,0.1l-0.1,1.7c-0.2-0.1-0.4-0.1-0.6-0.1c-1.3-0.1-2.3,0.9-2.6,2.3
			c-0.1,0.3-0.1,0.5-0.1,0.9l-0.3,5.4l-1.8-0.1L173.4,315z" />
<path fill="#FFFFFF" stroke="#FFFFFF" stroke-width="1.0041" stroke-miterlimit="10" d="M186.1,317.4c0.2,2.5,1.9,3.4,3.7,3.3
			c1.3-0.1,2.1-0.4,2.8-0.7l0.4,1.3c-0.6,0.3-1.7,0.7-3.3,0.8c-3.1,0.2-5.1-1.8-5.3-4.8c-0.2-3.1,1.5-5.6,4.4-5.8
			c3.3-0.2,4.4,2.7,4.5,4.5c0,0.4,0,0.7,0,0.9L186.1,317.4z M191.5,315.8c0-1.2-0.7-3-2.7-2.9c-1.9,0.1-2.6,1.9-2.7,3.2L191.5,315.8
			z" />
<path fill="#FFFFFF" stroke="#FFFFFF" stroke-width="1.0041" stroke-miterlimit="10" d="M196,311.2l1.7,2c0.5,0.5,0.8,1,1.3,1.5
			l0.1,0c0.2-0.7,0.5-1.2,0.8-1.8l1.1-2.4l2-0.3l-2.7,5.4l4.3,4.7l-2.1,0.3l-1.8-2.1c-0.5-0.5-0.9-1-1.3-1.6l0,0
			c-0.2,0.7-0.5,1.2-0.8,1.9l-1.1,2.5l-2,0.3l2.8-5.7l-4.1-4.4L196,311.2z" />
<path fill="#FFFFFF" stroke="#FFFFFF" stroke-width="1.0041" stroke-miterlimit="10" d="M205.5,313.1c-0.3-1.3-0.6-2.3-0.8-3.2
			l1.6-0.4l0.5,1.7l0,0c0.5-1.4,1.5-2.4,3.1-2.8c2.4-0.6,4.7,1,5.4,4.1c0.8,3.6-0.9,5.8-3.3,6.4c-1.3,0.3-2.6,0-3.4-0.8l0,0l1.3,5.4
			l-1.8,0.4L205.5,313.1z M207.9,315.3c0.1,0.3,0.2,0.5,0.3,0.7c0.6,1.2,1.9,1.8,3.2,1.5c1.9-0.4,2.6-2.3,2.1-4.5
			c-0.5-2-1.9-3.4-3.8-3c-1.2,0.3-2.2,1.4-2.2,2.9c0,0.2,0,0.5,0,0.8L207.9,315.3z" />
<path fill="#FFFFFF" stroke="#FFFFFF" stroke-width="1.0041" stroke-miterlimit="10" d="M218.9,311.8c0.8,2.4,2.7,2.8,4.4,2.3
			c1.3-0.4,1.9-0.9,2.5-1.4l0.7,1.2c-0.5,0.5-1.5,1.2-3,1.7c-3,1-5.4-0.4-6.4-3.3c-1-2.9,0-5.8,2.8-6.7c3.2-1,4.9,1.4,5.5,3.2
			c0.1,0.4,0.2,0.7,0.2,0.8L218.9,311.8z M223.7,308.8c-0.4-1.1-1.4-2.7-3.4-2c-1.8,0.6-2,2.5-1.7,3.8L223.7,308.8z" />
<path fill="#FFFFFF" stroke="#FFFFFF" stroke-width="1.0041" stroke-miterlimit="10" d="M227.2,306.1c-0.4-1-0.8-1.8-1.2-2.5
			l1.5-0.7l0.8,1.5l0,0c0.1-1.1,0.8-2.4,2.3-3.1c1.3-0.6,3.6-0.7,5,2.5l2.4,5.6l-1.7,0.7l-2.3-5.4c-0.7-1.5-1.8-2.5-3.4-1.8
			c-1.1,0.5-1.6,1.7-1.5,2.7c0,0.2,0.1,0.6,0.2,0.8l2.4,5.6l-1.7,0.7L227.2,306.1z" />
<path fill="#FFFFFF" stroke="#FFFFFF" stroke-width="1.0041" stroke-miterlimit="10" d="M240.3,306.2c0.7,0.1,1.7-0.1,2.5-0.5
			c1.2-0.6,1.4-1.5,1-2.3c-0.4-0.8-1.1-1-2.6-0.8c-1.9,0.3-3.2-0.2-3.7-1.3c-0.8-1.4-0.2-3.3,1.7-4.3c0.9-0.5,1.8-0.6,2.5-0.6
			l0.2,1.4c-0.5,0-1.3,0-2.1,0.5c-1,0.5-1.2,1.4-0.9,2c0.4,0.7,1.1,0.8,2.5,0.6c1.9-0.2,3.1,0.1,3.8,1.5c0.8,1.6,0.2,3.3-1.9,4.5
			c-1,0.5-2,0.8-2.9,0.7L240.3,306.2z" />
<path fill="#FFFFFF" stroke="#FFFFFF" stroke-width="1.0041" stroke-miterlimit="10" d="M247.7,298.9c1.4,2.1,3.3,2.1,4.8,1.1
			c1.1-0.7,1.7-1.3,2.1-2l1,1c-0.4,0.6-1.2,1.5-2.5,2.3c-2.7,1.7-5.3,0.9-7-1.7c-1.6-2.6-1.4-5.6,1.1-7.2c2.8-1.8,5.1,0.2,6.1,1.8
			c0.2,0.3,0.3,0.6,0.4,0.8L247.7,298.9z M251.6,294.9c-0.6-1-2-2.3-3.8-1.2c-1.6,1-1.4,2.9-0.8,4.1L251.6,294.9z" />
<path fill="#FFFFFF" stroke="#FFFFFF" stroke-width="1.0041" stroke-miterlimit="10" d="M257.4,295.9c0.7,0,1.7-0.3,2.4-0.9
			c1.1-0.8,1.2-1.7,0.7-2.4c-0.5-0.7-1.2-0.8-2.6-0.4c-1.9,0.6-3.2,0.3-3.9-0.7c-1-1.3-0.7-3.2,1-4.5c0.8-0.6,1.7-0.9,2.4-1l0.4,1.4
			c-0.5,0-1.3,0.2-2,0.8c-0.9,0.7-1,1.5-0.5,2.1c0.5,0.7,1.2,0.6,2.6,0.2c1.8-0.5,3.1-0.3,4,0.9c1.1,1.4,0.7,3.3-1.2,4.7
			c-0.9,0.7-1.9,1.1-2.7,1.1L257.4,295.9z" />
<path fill="#FFFFFF" stroke="#FFFFFF" stroke-width="1.0041" stroke-miterlimit="10" d="M273.7,284.9l-1-0.8l0,0
			c0.1,1-0.2,2.2-1.3,3.2c-1.5,1.4-3.3,1-4.3,0c-1.7-1.8-1-4.3,1.9-6.9l-0.1-0.2c-0.6-0.6-1.8-1.6-3.3-0.2c-0.7,0.6-1.2,1.5-1.4,2.4
			l-1.1-0.6c0.2-1,0.9-2.1,1.8-2.9c2.3-2.1,4.3-1.1,5.7,0.4l2.6,2.8c0.6,0.6,1.2,1.3,1.8,1.7L273.7,284.9z M270,281.3
			c-1.5,1.3-3,3.2-1.6,4.6c0.8,0.9,1.8,0.8,2.5,0.1c1-0.9,1-2.1,0.7-2.9c-0.1-0.2-0.2-0.4-0.3-0.5L270,281.3z" />
<path fill="#FFFFFF" stroke="#FFFFFF" stroke-width="1.0041" stroke-miterlimit="10" d="M272,276.3c-0.8-0.7-1.4-1.3-2.1-1.8
			l1.1-1.2l1.3,1.1l0,0c-0.4-1-0.3-2.5,0.9-3.8c1-1,3-2.1,5.6,0.3l4.5,4.1l-1.2,1.4l-4.3-4c-1.2-1.1-2.6-1.6-3.8-0.3
			c-0.8,0.9-0.8,2.2-0.3,3.1c0.1,0.2,0.3,0.5,0.6,0.7l4.5,4.1l-1.3,1.4L272,276.3z" />
<path fill="#FFFFFF" stroke="#FFFFFF" stroke-width="1.0041" stroke-miterlimit="10" d="M279.2,255.9l9.8,7.5
			c0.7,0.5,1.6,1.2,2.1,1.5l-1,1.3l-1.5-1l0,0c0.6,1.1,0.5,2.7-0.5,4c-1.5,2-4.3,2.2-6.8,0.3c-2.7-2-3.1-5-1.6-6.9
			c0.9-1.2,2.2-1.6,3.1-1.5l0,0l-4.8-3.7L279.2,255.9z M285.2,262.7c-0.2-0.1-0.4-0.3-0.7-0.4c-1.1-0.5-2.5-0.3-3.3,0.8
			c-1.2,1.5-0.5,3.4,1.3,4.8c1.6,1.2,3.6,1.5,4.8-0.1c0.8-1,0.8-2.4-0.1-3.5c-0.2-0.2-0.4-0.4-0.6-0.6L285.2,262.7z" />
<path fill="#FFFFFF" stroke="#FFFFFF" stroke-width="1.0041" stroke-miterlimit="10" d="M285.8,249.3c0.5,0.3,0.7,1,0.3,1.6
			c-0.3,0.6-1,0.7-1.6,0.4c-0.6-0.3-0.7-1-0.4-1.6C284.5,249,285.2,248.9,285.8,249.3z M295.8,257.9l-8.7-5.3l1-1.6l8.7,5.3
			L295.8,257.9z" />
<path fill="#FFFFFF" stroke="#FFFFFF" stroke-width="1.0041" stroke-miterlimit="10" d="M292.1,249.7c-0.9-0.5-1.7-0.9-2.5-1.2
			l0.8-1.5l1.5,0.7l0,0c-0.6-0.9-0.9-2.4-0.1-3.9c0.7-1.2,2.4-2.8,5.5-1.1l5.4,2.9l-0.9,1.6l-5.2-2.8c-1.4-0.8-2.9-0.9-3.8,0.7
			c-0.6,1.1-0.3,2.3,0.5,3.1c0.2,0.2,0.4,0.4,0.7,0.5l5.4,2.9l-0.9,1.6L292.1,249.7z" />
<path fill="#FFFFFF" stroke="#FFFFFF" stroke-width="1.0041" stroke-miterlimit="10" d="M306.9,235.3c0,0.5-0.1,1.7-0.6,2.9
			c-1.2,2.8-3.9,3.8-6.8,2.6c-2.9-1.2-4.1-4.1-2.8-7.2c0.4-1,1.1-1.8,1.5-2.2l1.1,1c-0.4,0.3-0.9,0.9-1.3,1.8
			c-0.9,2.1,0.2,4,2.1,4.8c2.2,0.9,4.1,0.1,4.9-1.7c0.4-1,0.4-1.7,0.4-2.3L306.9,235.3z" />
<path fill="#FFFFFF" stroke="#FFFFFF" stroke-width="1.0041" stroke-miterlimit="10" d="M306.2,222.5c3.6,1.2,4.3,4.2,3.5,6.5
			c-0.9,2.6-3.5,4-6.5,2.9c-3.2-1.1-4.4-3.8-3.5-6.5C300.6,222.7,303.3,221.5,306.2,222.5z M303.8,230.2c2.1,0.7,4.1,0,4.7-1.7
			c0.6-1.7-0.6-3.5-2.8-4.2c-1.6-0.6-4-0.4-4.7,1.6C300.3,228,301.9,229.5,303.8,230.2z" />
<path fill="#FFFFFF" stroke="#FFFFFF" stroke-width="1.0041" stroke-miterlimit="10" d="M304.9,219.3c-1-0.2-1.9-0.4-2.7-0.5
			l0.3-1.6l1.6,0.3l0-0.1c-0.8-0.8-1.5-1.9-1.2-3.5c0.3-1.4,1.3-2.2,2.6-2.4l0,0c-0.5-0.4-0.8-0.9-1.1-1.4c-0.3-0.7-0.4-1.4-0.2-2.4
			c0.3-1.3,1.6-3.1,5-2.3l5.9,1.3l-0.4,1.8l-5.6-1.2c-1.9-0.4-3.2,0-3.5,1.5c-0.2,1,0.4,2,1.2,2.5c0.2,0.1,0.5,0.3,0.9,0.3l6.2,1.3
			l-0.4,1.8l-6-1.3c-1.6-0.3-2.9,0.1-3.2,1.5c-0.2,1.1,0.5,2.2,1.3,2.6c0.2,0.2,0.5,0.3,0.9,0.3l6,1.3l-0.4,1.8L304.9,219.3z" />
<path fill="#FFFFFF" stroke="#FFFFFF" stroke-width="1.0041" stroke-miterlimit="10" d="M311,201.1c2.5,0.2,3.7-1.3,3.9-3.1
			c0.1-1.3,0-2.1-0.2-2.9l1.4-0.2c0.2,0.7,0.5,1.8,0.3,3.4c-0.3,3.1-2.6,4.8-5.6,4.5c-3.1-0.3-5.3-2.4-5-5.3
			c0.3-3.3,3.3-3.9,5.2-3.7c0.4,0,0.7,0.1,0.9,0.1L311,201.1z M310.3,195.6c-1.2-0.1-3,0.2-3.3,2.3c-0.2,1.9,1.4,2.9,2.7,3.1
			L310.3,195.6z" />
	</g>
</g>
<g id="pig">
<ellipse fill="none" stroke="#000000" stroke-width="2" stroke-miterlimit="10" cx="179.5" cy="126.8" rx="14.8" ry="13.8" />
<path fill="none" stroke="#000000" stroke-width="2" stroke-miterlimit="10" d="M120.8,170.1c0.6-0.2,1.1-0.7,1.9-1.8
		c1.7-2.2,3.4-4.4,5.4-6.3c3.4-3.3,7.4-5.8,11.5-7.9c10.4-5.3,22-8.3,33.6-8.7c5.9-0.2,11.8,0.1,17.6,1.2c2.9,0.5,5.8,1.2,8.6,2
		c2.1,0.6,5.7,2.7,7.4,1.6c0.9-0.6,1.5-1.8,2.5-2.4c1.1-0.7,2.3-1.2,3.5-1.7c5.3-2,10.9-3.3,16.5-3.8c2.8-0.3,5.7-0.3,8.5-0.2
		c1.9,0.1,3.3,1.1,4.7,2.2c-0.4,3-3.3,5-5.6,6.9c-3.8,3.1-7,7.5-7.8,12.5c-0.7,4.9,4.7,9.2,8.1,12.1c4.5,3.8,9,5.4,14.8,5.4l4.3,0.2
		l4.7,0.2l4.7,1l1.6,2.8l0.8,5.3v4.5l-1,3.3l-2.3,4.8l-3.3,4.8l-1.8,1.7l-2.3,0.8L256,211v2l-1.5,0.8l-3,0.3H247l-3.7,0.7l-3.7,1.2
		l-3.8,2.2l-2.8,2.7l-2.5,4.5l-1,3.7l-0.5,3l-0.2,4.3c0,0-0.8,3.5-0.8,3.5c-0.5,2.6-0.8,4.2-2.8,6.2c-0.6,0.6-1.1,1.1-1.8,1.5
		c-1.2,0.7-3.3,0.6-4.7,0.7c0,0-5.2,0.3-5.2,0.3l-3.3-0.5L202,241l-6,1.3l-4.7,0.7l-6.7,0.2l-8.2-0.2l-7.2-0.8l-7.2-0.8l-6.3-1.3
		l-7.7-1.8c0,0-4.2,2.3-4.2,2.3c-4,2.2-6.7,6.6-11.5,7.4c-1.5,0.3-3.1,0.1-4.6-0.1c-3.9-0.5-6.3-0.9-8.2-4.6c-1.2-2.3-1.8-5.4-1.5-8
		c0.2-2.1,1.7-4.3,2.4-6.3c1-2.6,1.8-5.4,2.6-8.1c0.1-0.3,0.2-0.7,0.2-1.1c0-0.3-0.2-0.6-0.3-0.9c-0.9-1.9-1.8-3.8-2.7-5.7
		c0,0-3.5-7-3.5-7l-1.7-6.5c0,0-1.3-5.7-1.3-5.7c0-0.2-4.1,0.2-4.4,0.1c-0.4-0.1-0.7-0.3-1-0.5c-0.6-0.4-1.3-0.8-1.9-1.1
		c-0.4-0.2-0.8-0.5-1.1-0.8c-0.2-0.3-0.4-0.6-0.5-0.9c-1-2-2.4-5.9-1.7-8.1c0.3-1.1,1.8-2.4,2.5-3.3c0,0,1.2-2.5,1.2-2.5
		c0.3-0.6,0-1.4,0.2-2c0.3-1.2,1.2-2.1,2.1-2.9c0.3-0.3,0.6-0.5,0.9-0.7c0.3-0.2,0.7-0.3,1.1-0.4c2.3-0.6,4.8-0.8,7.2-0.6
		C119.5,170.2,120.2,170.3,120.8,170.1z" />
</g>
<g id="pigDetails">
<polyline fill="none" stroke="#000000" stroke-miterlimit="10" points="172.1,121.9 174.9,121.2 174.7,122.2 	" />
<polyline fill="none" stroke="#000000" stroke-miterlimit="10" points="171.4,125.2 170.6,126.4 170.9,127.8 172.4,129.3
		169.8,132.3 	" />
<path fill="none" stroke="#000000" stroke-miterlimit="10" d="M167.1,127.1c0.1,0.2,0.6,2.6,0.6,2.6l2.4,3.6l2.8,2.9l0.5,0.3
		l2.1,1.2l1.4,0.6" />
<polyline fill="none" stroke="#000000" stroke-miterlimit="10" points="176.2,135.7 174.4,135.8 173.5,136.4 	" />
<line fill="none" stroke="#000000" stroke-miterlimit="10" x1="175.6" y1="119.4" x2="176.9" y2="118.1" />
<polyline fill="none" stroke="#000000" stroke-miterlimit="10" points="181.7,126.1 179.1,127.8 179.2,129.1 	" />
<polyline fill="none" stroke="#000000" stroke-miterlimit="10" points="178.8,132.1 178.3,133.3 178.2,134.2 	" />
<line fill="none" stroke="#000000" stroke-miterlimit="10" x1="181.2" y1="132.8" x2="180.5" y2="134.1" />
<polyline fill="none" stroke="#000000" stroke-miterlimit="10" points="184.3,131.3 185.8,130.7 185.6,128.3 187.3,126.3
		187.6,124.4 	" />
<polyline fill="none" stroke="#000000" stroke-miterlimit="10" points="181.9,118.3 183.8,118.5 185.6,119.8 186.9,121.1
		187.1,121.5 	" />
<line fill="none" stroke="#000000" stroke-miterlimit="10" x1="188.8" y1="123.7" x2="189.8" y2="123.6" />
<line fill="none" stroke="#000000" stroke-miterlimit="10" x1="178.2" y1="115.7" x2="179.6" y2="114.3" />
<line fill="none" stroke="#000000" stroke-miterlimit="10" x1="180.8" y1="115.9" x2="181.8" y2="115.9" />
<line fill="none" stroke="#000000" stroke-miterlimit="10" x1="181.4" y1="114.7" x2="181.3" y2="116" />
<line fill="none" stroke="#000000" stroke-miterlimit="10" x1="183.1" y1="116.3" x2="184.3" y2="116.5" />
<line fill="none" stroke="#000000" stroke-miterlimit="10" x1="184.9" y1="115.5" x2="183.6" y2="116.3" />
<line fill="none" stroke="#000000" stroke-miterlimit="10" x1="185.4" y1="118.3" x2="186.6" y2="117.7" />
<polyline fill="none" stroke="#000000" stroke-miterlimit="10" points="188.1,119.9 189.4,119.6 190.6,120.3 188.7,117.9
		185.9,116.1 183.9,115 180.3,114.4 176.6,114.6 174.2,115.3 175.8,114.9 176.3,116.8 	" />
<polyline fill="none" stroke="#000000" stroke-miterlimit="10" points="191.1,121.9 191.2,123.3 191.8,123.1 	" />
<line fill="none" stroke="#000000" stroke-miterlimit="10" x1="167.8" y1="129.6" x2="169.1" y2="128.4" />
<line fill="none" stroke="#000000" stroke-miterlimit="10" x1="178.8" y1="138.9" x2="180.1" y2="139.3" />
<line fill="none" stroke="#000000" stroke-miterlimit="10" x1="182.3" y1="138.9" x2="183.3" y2="138.6" />
<line fill="none" stroke="#000000" stroke-miterlimit="10" x1="184.9" y1="137.9" x2="185.4" y2="137.5" />
<line fill="none" stroke="#000000" stroke-miterlimit="10" x1="166.8" y1="124.8" x2="167.1" y2="123.8" />
<line fill="none" stroke="#000000" stroke-miterlimit="10" x1="189.6" y1="126.1" x2="190.3" y2="125.7" />
<path fill="none" stroke="#000000" stroke-miterlimit="10" d="M175.5,115.1" />
<path fill="none" stroke="#000000" stroke-width="2.1248" stroke-miterlimit="10" d="M108.6,182.8c-0.4,1.2-0.9,2.4-0.7,3.7
		c0.2,1,0.5,2.2,1.3,2.8c0.9,0.8,2,0.8,3.1,1.3c0.7,0.3,0.8,0.9,1.3,1.4" />
<path id="coinslot" stroke="#000000" stroke-miterlimit="10" d="M161.3,153.2c6.2,0.1,12.5-0.9,18.7-0.6c6.3,0.3,12.4,1.9,18.6,2.3
		c0-1.1-0.8-2.4-1.2-3.5l-8.1-2.3l-15.2-1.1l-8.3,0.4c0,0-2.9,0-2.9,0C162.4,149.9,161.3,151.7,161.3,153.2z" />
<g>
<path class="fillers" d="M208.1,149.4c-0.3,0.8-0.7,1.4-1.1,2.1c-0.2,0.3-0.4,0.6-0.7,0.9c-0.2,0.3-0.5,0.6-0.7,0.9l0.1-0.3
			c-0.1,0.5-0.3,1.1-0.4,1.6c-0.2,0.5-0.4,1.1-0.7,1.6c-0.1-0.6-0.1-1.2-0.1-1.7c0-0.6,0.1-1.1,0.1-1.7l0-0.1l0.1-0.1
			c0.2-0.3,0.5-0.6,0.7-0.9c0.2-0.3,0.5-0.6,0.8-0.8C206.8,150.3,207.4,149.8,208.1,149.4z" />
	</g>
<g>
<path class="fillers" d="M229.4,162c0,0,0,0.6-0.2,1.4c-0.1,0.8-0.4,1.9-0.8,3c-0.4,1.1-0.8,2.1-1.3,2.8c-0.4,0.7-0.8,1.2-0.8,1.2s0-0.6,0.2-1.4
			c0.1-0.8,0.4-1.9,0.8-3c0.4-1.1,0.9-2.1,1.3-2.8C229,162.4,229.4,162,229.4,162z" />
	</g>
<polyline fill="none" stroke="#000000" stroke-miterlimit="10" points="229.4,164.5 235.7,156 241.8,150 240.3,149.1 	" />
<path class="fillers" stroke="#000000" stroke-width="0.5" stroke-miterlimit="10" d="M229.8,175.1l0.4-1.3l1.5-0.2l0.9,0.4c0,0,2.2,2.1,2.3,2.1
		c0.8,0.8,1.7,1.9,2.3,2.9c0.5,0.9,1.1,1.9,1.1,2.9c0.1,1.1-0.6,2.4-1.9,2.1c-2.6-0.6-4.6-3.3-5.7-5.6c-0.4-0.9-0.9-1.9-1.2-2.9
		L229.8,175.1z" />
<polyline class="fillers" stroke="#000000" stroke-miterlimit="10" points="255.4,210.7 249.4,210.4 248.9,210.4 241.1,208.3 	" />
<g>
<path class="fillers" d="M223.7,218.6c0.9-0.3,1.8-0.5,2.6-0.8c0.9-0.3,1.7-0.5,2.6-0.8c1.7-0.6,3.3-1.4,4.8-2.4c1.5-1,2.9-2.1,4.1-3.5
			c1.2-1.3,2.2-2.9,3.2-4.4l0,0c1.1-1.8,2.1-3.7,2.8-5.7c0.2-0.5,0.3-1,0.4-1.5c0.1-0.5,0.2-1,0.3-1.6c0.1-1.1-0.1-2.1-0.3-3.2
			c0.4,1,0.7,2.1,0.7,3.2c0,1.1-0.2,2.2-0.4,3.3c-0.5,2.1-1.5,4.2-2.5,6l0,0l0,0c-1,1.5-2,3.1-3.3,4.5c-1.3,1.4-2.7,2.6-4.4,3.5
			c-1.6,1-3.4,1.7-5.1,2.2c-0.9,0.3-1.8,0.4-2.7,0.6C225.5,218.3,224.6,218.5,223.7,218.6z" />
	</g>
<g>
<path class="fillers" d="M204,242.4c-0.9-0.5-1.7-1.1-2.4-1.7c-0.4-0.3-0.7-0.6-1.1-1c-0.3-0.3-0.7-0.7-1-1l0.2,0.1c-0.7-0.4-1.4-0.7-2.1-1.2
			c-0.7-0.4-1.4-0.9-2-1.5c0.8,0.1,1.6,0.3,2.4,0.6c0.8,0.2,1.5,0.5,2.3,0.9l0.1,0l0.1,0.1c0.4,0.3,0.7,0.7,1,1.1
			c0.3,0.4,0.6,0.7,1,1.1C203,240.7,203.5,241.5,204,242.4z" />
	</g>
<g>
<path class="fillers" d="M145.8,239.1c0.7-0.7,1.4-1.3,2.2-1.9c0.8-0.6,1.5-1.1,2.3-1.6l0,0l0.1,0c0.6-0.3,1.2-0.5,1.7-0.7
			c0.6-0.2,1.2-0.5,1.8-0.7l0.1,0l0,0c1.1,0,2.2,0.1,3.3,0.3c-1.1,0.3-2.2,0.5-3.3,0.7l0.2,0c-0.6,0.3-1.1,0.6-1.7,0.9
			c-0.6,0.3-1.1,0.5-1.7,0.8l0.1,0c-0.8,0.5-1.6,0.9-2.5,1.4C147.6,238.4,146.7,238.8,145.8,239.1z" />
	</g>
<path fill="none" stroke="#000000" stroke-miterlimit="10" d="M118.6,174.3" />
<path stroke="#000000" id="tail" stroke-width="0.25" stroke-miterlimit="10" d="M114.9,175.4l2.6,2.3c0,0,0.8-1.8,0.8-1.8
		c0.2-0.9,0.7-2-0.6-2c-0.1,0-0.3,0-0.4,0c-1.2,0.2-2.2,0.4-3.2,1.2c-1.3,1.1-3,2.1-2.7,4.1c0.1,0.7,0.8,1.3,1.5,1.3
		c1.2,0.1,1.3-0.9,0.9-1.8c-0.1-0.3-0.5-0.6-0.5-0.6l-0.4-0.5l-0.4-0.6l2.3-2.1L114.9,175.4z" />
<path fill="none" stroke="#000000" stroke-width="1.9354" stroke-miterlimit="10" d="M106.8,176.8c0.6,2.1,0.9,4.8,2.6,6.3
		c1.6,1.4,3.7,1.9,5.7,2.4l-0.9,4.3l-0.4,3.7" />
</g>
<g id="arrows">
<g>
<g>
<line fill="none" stroke="#FFFFFF" stroke-width="3.9192" stroke-miterlimit="10" x1="33.5" y1="32.5" x2="50.3" y2="48.9" />
<g>
<polygon fill="#FFFFFF" points="32.6,58.9 70.5,68.5 59.9,30.9 				" />
			</g>
		</g>
	</g>
<g>
<g>
<line fill="ffffff" stroke="#FFFFFF" stroke-width="4" stroke-miterlimit="10" x1="304.5" y1="309.5" x2="322" y2="325.9" />
<g>
<polygon fill="#FFFFFF" points="304.1,336.5 343,345.5 331.4,307.3 				" />
			</g>
		</g>
	</g>
<g>
<g>
<line fill="none" stroke="#FFFFFF" stroke-width="4.0373" stroke-miterlimit="10" x1="69.3" y1="305.8" x2="51.7" y2="323.3" />
<g>
<polygon fill="#FFFFFF" points="41.7,304.8 31.2,343.7 70.1,333.4 				" />
			</g>
		</g>
	</g>
<g>
<g>
<line fill="none" stroke="#FFFFFF" stroke-width="4.0373" stroke-miterlimit="10" x1="342.2" y1="31.7" x2="324.7" y2="49.3" />
<g>
<polygon fill="#FFFFFF" points="314.6,30.9 304.3,69.8 343.2,59.2 				" />
			</g>
		</g>
	</g>
</g>
</svg>

