<svg xmlns="http://www.w3.org/2000/svg" xml:space="preserve" width="22" height="22" style="shape-rendering:geometricPrecision; text-rendering:geometricPrecision; image-rendering:optimizeQuality; fill-rule:evenodd; clip-rule:evenodd" viewBox="0 0 600 600">

<g id="Layer_x0020_1">
<metadata id="CorelCorpID_0Corel-Layer" />
<g id="_161415560">
    <polygon id="_160735112" style="fill:white" points="175.736,0.0002 300,0.0003 424.264,0 512.132,87.8682 600,175.736 600,300 600,424.264 512.132,512.132 424.264,600 300,600 175.736,600 87.8678,512.132 -0.0001,424.264 0,300 -0.0001,175.736 87.868,87.8683 " />
    <polygon id="_160677632" style="fill:#a94442" points="181.949,15.0002 300,15.0003 418.051,15 501.525,98.4747 585,181.949 585,300 585,418.051 501.525,501.525 418.051,585 300,585 181.949,585 98.4745,501.525 15.0001,418.051 15.0001,300 15.0001,181.949 98.4747,98.4748 " />
<g>
    <path id="_161418320" style="fill:white;fill-rule:nonzero;" d="M50 349.006l30.1073 0 2.8222 0 0 2.8222 0 9.0478c0,3.2966 0.3626,6.3371 1.0936,9.1207 0.7189,2.7369 1.7919,5.2486 3.2247,7.535l0.0059 -0.0039 0.0008 0.0012 0.0096 0.0287 0.0226 0.0362 -0.0001 0.0001c0.5965,0.9159 1.2393,1.7903 1.928,2.6223 0.6763,0.8168 1.3702,1.5563 2.0814,2.2177 3.6283,3.3741 8.0363,5.0711 13.2236,5.0711 3.1001,0 5.9227,-0.6674 8.4733,-1.9956 2.6007,-1.3542 4.9552,-3.4008 7.0689,-6.1326l0.0017 0.0013c0.4816,-0.6444 0.9445,-1.3304 1.3881,-2.0577 0.4344,-0.7122 0.8336,-1.4435 1.1971,-2.1935 1.8856,-3.89 2.8284,-8.3236 2.8284,-13.2793 0,-6.4504 -1.8469,-11.9939 -5.5405,-16.5746l-55.5742 -69.2254 0 -0.011 -0.0012 -0.0015 -0.011 0c-1.3334,-1.6697 -2.5657,-3.3687 -3.6965,-5.0964 -1.1096,-1.6953 -2.1568,-3.4836 -3.1412,-5.3641 -4.9213,-9.401 -7.382,-19.845 -7.382,-31.3081 0,-19.5762 6.5232,-35.4443 19.5694,-47.6041l0.011 0c5.2144,-4.8235 10.7233,-8.4345 16.5262,-10.8406 5.8647,-2.4318 12.0118,-3.6437 18.4408,-3.6437 8.7592,0 16.6881,2.1248 23.8069,6.3741 7.0446,4.2049 13.2321,10.4688 18.5831,18.7912l-0.0027 0.0017c3.236,4.9719 5.7595,10.4593 7.5766,16.4691 1.8054,5.9709 2.9231,12.4879 3.3598,19.5583l0.1846 2.9876 -2.9958 0 -29.211 0 -2.3441 0 -0.4217 -2.3188 -0.0019 0.0004c-0.1696,-0.9254 -0.3434,-1.787 -0.5213,-2.5834 -0.1583,-0.7088 -0.3549,-1.4973 -0.5897,-2.3655 -1.0152,-3.7541 -2.2654,-6.6505 -3.7482,-8.6241l-0.0652 -0.0796 -0.0018 0.0012 -0.0156 -0.0225 -0.0167 -0.0204 -0.0008 -0.0012 0.0017 -0.0011c-0.5438,-0.7798 -1.0829,-1.4747 -1.6162,-2.0838 -0.5657,-0.6462 -1.146,-1.2333 -1.7403,-1.7611 -3.0061,-2.6697 -6.5765,-4.0046 -10.6945,-4.0046 -2.6606,0 -5.1053,0.6227 -7.3393,1.8678 -2.3151,1.2902 -4.4566,3.2611 -6.4296,5.912l-0.0111 0.011 -0.0012 0.0016 -0.033 0.0441c-0.4061,0.5182 -0.8005,1.0762 -1.1827,1.6731 -0.3838,0.5993 -0.7175,1.1768 -1.001,1.732 -1.5544,3.0436 -2.3231,6.4797 -2.3231,10.2865 0,2.8562 0.4326,5.5231 1.2978,8.0005 0.8678,2.4849 2.1768,4.8169 3.9266,6.9956l0.011 0.0221 55.5738 70.1358 -0.0013 0.001c1.374,1.7179 2.6347,3.4582 3.7815,5.2201 1.1751,1.8051 2.2492,3.6484 3.2223,5.5293 5.0233,9.7102 7.535,20.6495 7.535,32.7695l0 0.002 -0.011 0c-0.0002,9.0478 -1.3739,17.368 -4.1138,24.9438 -0.4472,1.2365 -0.9322,2.4563 -1.4547,3.6586 -2.6754,6.1565 -6.3152,11.7831 -10.9151,16.8699l0.0006 0.0005c-1.6404,1.8354 -3.2869,3.5194 -4.9391,5.0513 -1.6697,1.5482 -3.3946,2.9891 -5.1739,4.3218 -9.1362,6.8433 -19.1175,10.277 -29.9439,10.277 -6.1659,0 -12.1797,-1.1628 -18.0407,-3.4963 -5.8027,-2.3102 -11.4115,-5.7555 -16.8262,-10.3435l-0.0021 0c-2.1055,-1.7676 -4.0685,-3.6369 -5.8883,-5.6072 -1.8171,-1.9674 -3.4877,-4.033 -5.011,-6.1963 -7.8143,-11.0966 -11.7318,-24.6904 -11.7318,-40.757l0 -9.5941 0 -2.8222 2.8222 0z" />
    <polygon id="_161418944" style="fill:white;fill-rule:nonzero;" points="247.396,210.08 247.396,425 247.396,427.822 244.573,427.822 213.578,427.822 210.755,427.822 210.755,425 210.755,210.08 173.843,210.08 171.021,210.08 171.021,207.258 171.021,175 171.021,172.178 173.843,172.178 285.502,172.178 288.324,172.178 288.324,175 288.324,207.258 288.324,210.08 285.502,210.08 " />
    <path id="_161411104" style="fill:white;fill-rule:nonzero;" d="M298.116 362.151l0 -124.484 0 -0.0022 0.011 0c0.0002,-8.4352 1.165,-16.282 3.494,-23.5316 0.3645,-1.1347 0.7775,-2.3029 1.2386,-3.5035 2.2847,-5.9492 5.3839,-11.4582 9.2969,-16.5216 5.6039,-7.28 11.9837,-12.7479 19.1391,-16.4112 7.1917,-3.6821 15.1053,-5.5193 23.7402,-5.5193l0.0012 0 0 0.011c9.7226,0.0002 18.4597,2.3528 26.1966,7.0498 1.3001,0.7892 2.5312,1.6124 3.6929,2.4691 6.1323,4.5221 11.5412,10.6455 16.2185,18.3654l0.0049 -0.003c3.6867,6.007 6.4486,12.1367 8.2921,18.3962 1.8538,6.2941 2.7773,12.6918 2.7773,19.2009l0 124.484c0,6.4218 -0.7977,12.6267 -2.3861,18.6297 -1.5843,5.9875 -3.9567,11.7528 -7.1102,17.3111l0 0.011c-5.6362,9.8471 -12.4716,17.2523 -20.5056,22.2227 -8.0706,4.9931 -17.2893,7.4856 -27.656,7.4856l0 0.011 -0.0014 0 0 -0.011c-9.2204,-0.0002 -17.544,-1.9778 -24.9634,-5.9329 -1.2465,-0.6645 -2.4301,-1.3588 -3.5502,-2.0825 -5.9388,-3.8375 -11.2112,-9.0318 -15.8123,-15.5824l0 -0.0111c-4.0648,-5.7958 -7.1008,-12.2083 -9.1146,-19.237 -2.0046,-6.9969 -3.0035,-14.6016 -3.0035,-22.8142zm78.3521 4.4931l0 -132.56c0,-3.5392 -0.5344,-6.7722 -1.6032,-9.7056 -1.0644,-2.9215 -2.664,-5.5809 -4.7984,-7.9844 -2.1667,-2.4411 -4.487,-4.2666 -6.9722,-5.4758 -2.43,-1.1825 -5.0246,-1.7737 -7.7949,-1.7737l0 0.011 -0.0012 0 0 -0.011c-3.8836,0.0001 -7.3381,0.9503 -10.3568,2.8568 -0.4911,0.3101 -0.9704,0.6451 -1.4375,1.0045 -2.4712,1.9017 -4.661,4.5208 -6.5656,7.8609l0.0023 0.0013 -0.0208 0.0381 0 0.0039 -0.0012 0.0021 -0.0016 -0.0009c-0.2722,0.4988 -0.527,1.0106 -0.7639,1.5356 -0.2556,0.5663 -0.4819,1.1214 -0.6784,1.6645 -1.0654,2.9434 -1.6071,6.2672 -1.6071,9.9727l0 132.56 0 0.0024 -0.011 0c0.0001,3.1507 0.3856,6.0435 1.162,8.6704 0.1157,0.3917 0.251,0.805 0.4052,1.2392 0.736,2.0708 1.7336,3.9585 2.9958,5.6582l0.011 0.0221c2.1129,2.8929 4.5318,5.0576 7.2619,6.4867 2.6969,1.4117 5.7568,2.121 9.1855,2.121 3.9301,0 7.375,-0.8585 10.3336,-2.5819 2.9661,-1.7278 5.508,-4.3555 7.6254,-7.889 1.2213,-2.1517 2.1311,-4.371 2.735,-6.6576 0.6067,-2.2967 0.9071,-4.6539 0.9071,-7.0715l-0.011 0z" />
    <path id="_161411464" style="fill:white;fill-rule:nonzero;" d="M435.518 425l0 -250 0 -2.8112 2.8222 0 63.109 0c7.991,-0.0661 15.2149,1.4444 21.6855,4.5313 6.4817,3.0923 12.1864,7.7486 17.1277,13.9687l0.0331 0.0552c4.2029,5.532 7.3428,11.8037 9.4265,18.8306 2.0691,6.9777 3.1002,14.6816 3.1002,23.1274l0 26.0067 0 0.0027 -0.011 0c-0.0002,4.6134 -0.511,9.2071 -1.5323,13.7721 -0.1747,0.781 -0.3542,1.5249 -0.5381,2.2307 -0.9964,3.8242 -2.3415,7.6079 -4.0348,11.3459l-0.011 0.0111c-3.025,6.6392 -6.9284,12.2672 -11.7096,16.8998 -4.7993,4.6501 -10.4648,8.2867 -16.9963,10.9258l-0.0331 0.0111c-3.135,1.2144 -6.1725,2.134 -9.1264,2.7501 -2.9842,0.6226 -5.9026,0.9381 -8.77,0.9381l0 0.011 -27.9016 0 0 107.393 0 2.8222 -2.8222 0 -30.9956 0 -2.8222 0 0 -2.8222zm36.64 -145.295l24.8619 0 0.0017 0 0 0.011c3.0321,-0.0001 5.7536,-0.5446 8.1578,-1.6331 0.3817,-0.1728 0.7562,-0.36 1.1226,-0.5612 1.9022,-1.0441 3.5978,-2.4637 5.0827,-4.2585l-0.0023 -0.0018c1.6128,-1.9958 2.8122,-4.1869 3.6039,-6.5728 0.7992,-2.4085 1.1958,-5.0687 1.1958,-7.9795l0 -26.0067 0 -0.0026 0.011 0c-0.0001,-2.9526 -0.3375,-5.6947 -1.0181,-8.2184 -0.1248,-0.4628 -0.2405,-0.859 -0.3468,-1.1879 -0.6378,-1.9726 -1.5095,-3.7977 -2.618,-5.4708l-0.005 0.0034 -0.0008 -0.0012 -0.033 -0.0661c-0.4536,-0.7163 -0.9484,-1.395 -1.4839,-2.0353 -0.5373,-0.6425 -1.0822,-1.2108 -1.634,-1.7045 -2.9428,-2.6328 -6.7429,-3.9492 -11.3823,-3.9492l0 0.011 -25.5132 0 0 69.6242z" />
   </g>
  </g>
 </g>
</svg>